<svg xmlns="http://www.w3.org/2000/svg" width="46.925" height="52.237" viewBox="0 0 46.925 52.237"><g transform="translate(-1100.115 0)"><path d="M42.144,17.53V7.673C42.144,2.007,38.189,0,34.471,0H12.4C8.677,0,4.722,2.007,4.722,7.673V17.53A6.271,6.271,0,0,0,0,23.61V39.429c0,4.663,3.128,6.493,6.2,6.67v4.014a2.116,2.116,0,0,0,2.125,2.125h2.184a2.116,2.116,0,0,0,2.125-2.125V46.1H34.294v4.014a2.116,2.116,0,0,0,2.125,2.125H38.6a2.116,2.116,0,0,0,2.125-2.125V46.1c4.545-.236,6.2-3.541,6.2-6.67V23.551A6.457,6.457,0,0,0,42.144,17.53ZM6.847,7.673c0-4.84,3.482-5.607,5.548-5.607H34.471c2.066,0,5.548.708,5.548,5.548v9.68a6.291,6.291,0,0,0-5.725,6.257v1.476H12.572V23.551a6.291,6.291,0,0,0-5.725-6.257ZM34.234,27.151v7.319H12.572V27.151ZM10.506,50.112H8.323V46.1h2.184Zm28.037,0H36.359V46.1h2.184ZM44.8,39.429h-.059c0,2.066-.767,4.6-4.6,4.6H6.729c-2.066,0-4.6-.767-4.6-4.6V23.551a4.191,4.191,0,1,1,8.382,0V35.533A1.058,1.058,0,0,0,11.569,36.6H35.356a1.058,1.058,0,0,0,1.062-1.062V23.551a4.191,4.191,0,0,1,8.382,0V39.429Z" transform="translate(1100.115 0)" fill="#fd5b2f"/></g></svg>