<svg xmlns="http://www.w3.org/2000/svg" width="50.14" height="52.237" viewBox="0 0 50.14 52.237"><g transform="translate(-83.58 0)"><path d="M50.072,19.352V11.294a5.746,5.746,0,0,0-5.74-5.74H42.821V4.648a4.672,4.672,0,0,0-9.345,0v.906H16.6V4.648a4.672,4.672,0,0,0-9.345,0v.906H5.739A5.746,5.746,0,0,0,0,11.294V46.5a5.746,5.746,0,0,0,5.739,5.74H44.332a5.746,5.746,0,0,0,5.74-5.74V20.18a1.294,1.294,0,0,0,0-.828ZM38.149,2.589a2.061,2.061,0,0,1,2.059,2.06V7.4a2.059,2.059,0,0,1-4.119,0V4.648A2.062,2.062,0,0,1,38.149,2.589ZM9.864,4.648a2.059,2.059,0,0,1,4.119,0V7.4a2.059,2.059,0,0,1-4.119,0ZM5.739,8.167H7.315a4.672,4.672,0,0,0,9.216,0H33.541a4.672,4.672,0,0,0,9.216,0h1.576a3.13,3.13,0,0,1,3.127,3.127v7.165H2.613V11.294A3.13,3.13,0,0,1,5.739,8.167ZM44.332,49.624H5.739A3.13,3.13,0,0,1,2.613,46.5V21.072H47.459V46.5a3.13,3.13,0,0,1-3.127,3.127Z" transform="translate(83.58 0)" fill="#fd5b2f"/><path d="M17.042,5.551l-4.7-.669L10.249.719a1.306,1.306,0,0,0-2.334,0l-2.1,4.163-4.7.669A1.306,1.306,0,0,0,.4,7.789l3.383,3.233-.8,4.558a1.307,1.307,0,0,0,1.886,1.387L9.083,14.8l4.207,2.168a1.307,1.307,0,0,0,1.885-1.386l-.8-4.558L17.761,7.79a1.307,1.307,0,0,0-.719-2.238ZM12.067,9.615a1.306,1.306,0,0,0-.384,1.17l.464,2.654L9.681,12.167a1.307,1.307,0,0,0-1.2,0L6.017,13.439l.464-2.654A1.3,1.3,0,0,0,6.1,9.615L4.155,7.759l2.709-.386a1.306,1.306,0,0,0,.983-.706L9.082,4.213l1.236,2.455a1.306,1.306,0,0,0,.982.706l2.71.386Z" transform="translate(99.532 27.17)" fill="#fd5b2f"/></g></svg>