<svg xmlns="http://www.w3.org/2000/svg" width="52.239" height="52.237" viewBox="0 0 52.239 52.237"><g transform="translate(-843.107 0)"><path d="M46.386,9.668q-.141-.178-.294-.355A26.032,26.032,0,0,0,26.495.008C26.368,0,26.246,0,26.119,0s-.249,0-.375.008A26.033,26.033,0,0,0,6.093,9.379a2.516,2.516,0,0,0-.192.233.056.056,0,0,1-.012.016,26.038,26.038,0,0,0,0,32.984.056.056,0,0,1,.012.016,2.519,2.519,0,0,0,.192.233l0,0a26.028,26.028,0,0,0,19.647,9.366c.251.008.5.008.751,0a26.032,26.032,0,0,0,19.6-9.305q.153-.178.294-.355a26.049,26.049,0,0,0,0-32.9ZM40.6,25.405a43.345,43.345,0,0,0-1.661-11.44A28.393,28.393,0,0,0,45.55,10.9a24.552,24.552,0,0,1,5.248,14.5ZM26.833,1.465c4.363.449,8.158,4.955,10.35,11.55a41.062,41.062,0,0,1-10.35,1.461ZM25.405,14.476a41.062,41.062,0,0,1-10.35-1.461c2.192-6.6,5.987-11.1,10.35-11.55Zm0,1.428v9.5H13.064a42.608,42.608,0,0,1,1.571-11.027A42.509,42.509,0,0,0,25.405,15.9Zm0,10.929v9.5a42.51,42.51,0,0,0-10.77,1.526,42.608,42.608,0,0,1-1.571-11.027Zm0,10.929V50.774c-4.363-.449-8.158-4.955-10.35-11.55a41.062,41.062,0,0,1,10.35-1.461Zm1.428,0a41.062,41.062,0,0,1,10.35,1.461c-2.192,6.6-5.987,11.1-10.35,11.55Zm0-1.428v-9.5H39.175A42.639,42.639,0,0,1,37.6,37.865a42.172,42.172,0,0,0-10.77-1.53Zm0-10.929V15.9a42.171,42.171,0,0,0,10.77-1.53,42.639,42.639,0,0,1,1.571,11.031ZM44.627,9.791a27.006,27.006,0,0,1-6.114,2.82C36.947,7.95,34.592,4.244,31.788,2.085A24.732,24.732,0,0,1,44.627,9.791ZM20.451,2.085c-2.8,2.159-5.159,5.865-6.726,10.525A27.357,27.357,0,0,1,7.611,9.795,24.7,24.7,0,0,1,20.451,2.085ZM6.689,10.9A28.407,28.407,0,0,0,13.3,13.97a43.289,43.289,0,0,0-1.661,11.435H1.44A24.564,24.564,0,0,1,6.689,10.9Zm4.946,15.937A43.289,43.289,0,0,0,13.3,38.269v0a28.235,28.235,0,0,0-6.607,3.069A24.564,24.564,0,0,1,1.44,26.834ZM7.611,42.444a27.356,27.356,0,0,1,6.114-2.816c1.567,4.661,3.922,8.366,6.726,10.525A24.7,24.7,0,0,1,7.611,42.444Zm24.177,7.709c2.8-2.159,5.159-5.865,6.726-10.525a27,27,0,0,1,6.114,2.82,24.732,24.732,0,0,1-12.839,7.705ZM45.55,41.338a28.394,28.394,0,0,0-6.607-3.065A43.345,43.345,0,0,0,40.6,26.834H50.8a24.552,24.552,0,0,1-5.248,14.5Z" transform="translate(843.107 0)" fill="#fd5b2f"/></g></svg>