<svg xmlns="http://www.w3.org/2000/svg" width="63.528" height="52.237" viewBox="0 0 63.528 52.237"><g transform="translate(-584.01 0)"><path d="M8.189,4.095A4.095,4.095,0,1,1,4.095,0,4.095,4.095,0,0,1,8.189,4.095Z" transform="translate(611.556 44.048)" fill="#fd5b2f"/><path d="M62.862,13.57a42.419,42.419,0,0,0-62.2,0A2.482,2.482,0,1,0,4.3,16.954a37.456,37.456,0,0,1,54.934,0,2.482,2.482,0,1,0,3.631-3.384Z" transform="translate(584.01 0)" fill="#fd5b2f"/><path d="M44.693,9.419A30.909,30.909,0,0,0,22.706,0,30.905,30.905,0,0,0,.72,9.419a2.482,2.482,0,0,0,3.523,3.5A25.979,25.979,0,0,1,22.706,4.963,25.983,25.983,0,0,1,41.17,12.915a2.482,2.482,0,1,0,3.523-3.5Z" transform="translate(593.069 14.399)" fill="#fd5b2f"/><path d="M25.073,5.185A17.907,17.907,0,0,0,13,0h-.183A17.908,17.908,0,0,0,.735,5.185,2.482,2.482,0,0,0,4.228,8.711a12.959,12.959,0,0,1,8.585-3.748H13A12.959,12.959,0,0,1,21.58,8.711a2.482,2.482,0,0,0,3.493-3.526Z" transform="translate(602.756 28.91)" fill="#fd5b2f"/></g></svg>